#!OML:ASF F:\VICON\USERDATA\INSTALL\rory3\rory3.ASF
:FULLY-SPECIFIED
:DEGREES
2269
root -1.62797 17.6452 4.50143 -624.317 -92.511 629.536
lowerback 14.9992 5.88296 -2.17241
upperback 4.44886 7.09027 -1.99388
thorax -3.64105 3.41017 -2.13265
lowerneck -3.85209 5.1412 -4.6542
upperneck 3.18892 6.86505 6.33215
head 1.27398 3.49174 2.97449
rclavicle 7.70291e-015 9.93923e-015
rhumerus -14.144 17.5102 -88.2776
rradius 99.8805
rwrist -57.3193
rhand 2.05506 6.77117
rfingers 7.12502
rthumb 27.5572 -21.2316
lclavicle 7.70291e-015 9.93923e-015
lhumerus -9.09165 -4.40654 77.4538
lradius 137.208
lwrist 49.8813
lhand 10.0223 21.0685
lfingers 7.12502
lthumb 35.1475 47.59
rfemur -14.1862 12.8741 2.48027
rtibia 48.0061
rfoot -20.6231 4.7045
rtoes -18.5077
lfemur -28.9589 -4.07941 -3.25232
ltibia 39.0743
lfoot -4.65527 9.43777
ltoes -32.9869
2270
root -1.52898 17.7801 4.44742 -665.025 -92.8412 670.58
lowerback 15.1686 6.02279 -2.09225
upperback 4.36397 7.27746 -1.92866
thorax -3.8169 3.49946 -2.16671
lowerneck -3.91633 5.54681 -4.32018
upperneck 3.42755 7.3999 5.84436
head 1.35843 3.75449 2.76631
rclavicle 8.49804e-014 -2.48481e-014
rhumerus -12.8019 18.2024 -88.1767
rradius 101.728
rwrist -56.7063
rhand 3.28853 6.88993
rfingers 7.12502
rthumb 28.7362 -20.9189
lclavicle 8.49804e-014 -2.48481e-014
lhumerus -8.66803 -3.13069 76.2658
lradius 138.48
lwrist 49.7783
lhand 10.3522 21.037
lfingers 7.12502
lthumb 35.4603 47.4843
rfemur -14.8429 12.2034 2.00308
rtibia 45.9854
rfoot -17.9957 7.84033
rtoes -15.1346
lfemur -28.0783 -4.53543 -2.5073
ltibia 37.5418
lfoot -3.19003 11.5612
ltoes -31.6309
2271
root -1.42949 17.9131 4.39593 -688.883 -93.9999 694.622
lowerback 15.5262 6.12643 -1.89982
upperback 4.33005 7.42641 -1.81872
thorax -4.03178 3.56659 -2.22641
lowerneck -3.92838 5.90808 -3.98017
upperneck 3.61817 7.87711 5.33337
head 1.42694 3.9869 2.54907
rclavicle -1.05604e-013 4.31363e-014
rhumerus -11.3063 18.6734 -88.1148
rradius 103.62
rwrist -56.0628
rhand 5.2705 6.54825
rfingers 7.12502
rthumb 30.6279 -20.9235
lclavicle -1.05604e-013 4.31363e-014
lhumerus -8.20987 -1.74978 75.0045
lradius 139.826
lwrist 50.0295
lhand 10.7954 21.2705
lfingers 7.12502
lthumb 35.8804 47.6164
rfemur -15.2971 11.4677 1.73884
rtibia 44.0169
rfoot -15.1454 10.5274
rtoes -11.2829
lfemur -27.1795 -5.25032 -1.62883
ltibia 36.2221
lfoot -1.78074 13.7355
ltoes -29.3864
2272
root -1.32649 18.0374 4.34401 -702.97 -95.3697 708.855
lowerback 15.9808 6.19289 -1.39174
upperback 4.31485 7.57561 -1.69148
thorax -4.2394 3.63145 -2.45007
lowerneck -3.79506 6.22496 -3.58666
upperneck 3.61015 8.29548 4.80317
head 1.41578 4.18851 2.30617
rclavicle 5.96354e-015 1.85864e-014
rhumerus -9.69427 19.1665 -87.9154
rradius 105.371
rwrist -55.4945
rhand 6.315 6.50601
rfingers 7.12502
rthumb 31.6234 -20.7747
lclavicle 5.96354e-015 1.85864e-014
lhumerus -7.68649 -0.536707 73.6607
lradius 141.254
lwrist 50.2068
lhand 10.4709 21.8092
lfingers 7.12502
lthumb 35.5729 48.2295
rfemur -15.699 10.933 1.79173
rtibia 42.1173
rfoot -12.2351 12.8051
rtoes -10.0294
lfemur -26.3668 -5.81197 -0.519093
ltibia 35.1399
lfoot -0.525836 15.3938
ltoes -26.6572
2273
root -1.22994 18.1611 4.28324 -709.734 -96.667 715.842
lowerback 16.1641 6.16352 -1.12624
upperback 4.35832 7.57279 -1.57386
thorax -4.27312 3.62446 -2.48857
lowerneck -3.6132 6.59654 -3.10139
upperneck 3.52115 8.78457 4.23975
head 1.37692 4.42574 2.03634
rclavicle 2.8128e-014 -2.04748e-014
rhumerus -7.85118 19.7568 -87.7494
rradius 106.976
rwrist -55.0571
rhand 6.74189 6.32289
rfingers 7.12502
rthumb 32.03 -20.877
lclavicle 2.8128e-014 -2.04748e-014
lhumerus -7.12568 0.69811 72.1529
lradius 142.639
lwrist 50.1681
lhand 9.63556 22.3204
lfingers 7.12502
lthumb 34.7806 48.9274
rfemur -16.1183 10.6333 1.7641
rtibia 40.3855
rfoot -9.61082 14.5064
rtoes -11.7011
lfemur -25.7923 -6.62932 0.429468
ltibia 34.3055
lfoot 0.279046 16.4848
ltoes -23.2284
2274
root -1.13925 18.2833 4.21526 -711.466 -97.6759 717.773
lowerback 16.1812 6.07045 -1.30504
upperback 4.51445 7.41337 -1.49805
thorax -4.15418 3.54217 -2.27219
lowerneck -3.72366 6.90156 -2.66195
upperneck 3.57017 9.187 3.77807
head 1.43576 4.62379 1.82833
rclavicle 6.18717e-014 -2.5842e-014
rhumerus -5.82059 20.2766 -87.6268
rradius 108.552
rwrist -54.5058
rhand 6.81154 6.31201
rfingers 7.12502
rthumb 32.0963 -20.8746
lclavicle 6.18717e-014 -2.5842e-014
lhumerus -6.41683 1.9776 70.6293
lradius 143.877
lwrist 50.6344
lhand 9.08701 22.0353
lfingers 7.12502
lthumb 34.2599 48.761
rfemur -16.4659 10.4987 1.43862
rtibia 39.0038
rfoot -7.72636 15.2581
rtoes -14.6438
lfemur -25.4403 -7.59009 0.883508
ltibia 33.7607
lfoot 0.503907 16.334
ltoes -19.6484
2275
root -1.04749 18.3928 4.13779 -711.152 -98.4448 717.692
lowerback 16.1028 5.96665 -1.78975
upperback 4.72286 7.19252 -1.42748
thorax -3.96564 3.4292 -1.86926
lowerneck -4.02842 7.08341 -2.57806
upperneck 3.60128 9.43553 3.65432
head 1.49993 4.74877 1.79506
rclavicle 3.66758e-014 -2.80286e-014
rhumerus -3.73386 20.6955 -87.2299
rradius 110.151
rwrist -54.1251
rhand 5.46118 6.82833
rfingers 7.12502
rthumb 30.8098 -20.6092
lclavicle 3.66758e-014 -2.80286e-014
lhumerus -5.49866 3.26874 69.1262
lradius 144.864
lwrist 51.806
lhand 9.25377 21.2867
lfingers 7.12502
lthumb 34.4182 47.9767
rfemur -16.8439 10.8172 0.987852
rtibia 38.0921
rfoot -6.86121 14.7387
rtoes -17.6713
lfemur -25.3934 -8.05495 0.961307
ltibia 33.5977
lfoot 0.559392 14.2685
ltoes -17.4061
2276
root -0.953676 18.481 4.0509 -709.774 -98.9759 716.62
lowerback 15.9504 5.83476 -2.46933
upperback 4.77736 6.91964 -1.33174
thorax -3.92257 3.29337 -1.32732
lowerneck -3.73445 7.23533 -2.50238
upperneck 3.42703 9.63825 3.48924
head 1.39691 4.84547 1.71259
rclavicle 2.71838e-014 -5.1684e-015
rhumerus -1.91044 20.8654 -86.6568
rradius 111.759
rwrist -54.1409
rhand 3.87153 7.15939
rfingers 7.12502
rthumb 29.293 -20.5536
lclavicle 2.71838e-014 -5.1684e-015
lhumerus -4.71932 4.21064 67.6117
lradius 145.697
lwrist 52.6553
lhand 9.07718 20.8444
lfingers 7.12502
lthumb 34.2506 47.5722
rfemur -17.2664 11.5689 0.47196
rtibia 37.7649
rfoot -7.51993 11.077
rtoes -18.998
lfemur -25.7787 -7.95282 0.701981
ltibia 33.9633
lfoot 1.11585 10.7603
ltoes -18.7492
2277
root -0.858983 18.5513 3.9668 -709.211 -99.3225 716.306
lowerback 15.8777 5.6026 -2.86795
upperback 4.64702 6.5644 -1.26702
thorax -4.07378 3.12218 -0.974157
lowerneck -2.74426 7.45026 -2.04636
upperneck 3.13935 9.89961 3.19396
head 1.16156 4.96792 1.48983
rclavicle 5.39203e-015 -5.96354e-015
rhumerus -0.493819 20.8246 -86.2928
rradius 113.26
rwrist -54.3321
rhand 3.62627 7.40838
rfingers 7.12502
rthumb 29.0588 -20.3452
lclavicle 5.39203e-015 -5.96354e-015
lhumerus -4.19275 4.80515 65.9235
lradius 146.374
lwrist 53.0186
lhand 8.19659 20.479
lfingers 7.12502
lthumb 33.4139 47.391
rfemur -17.651 12.5807 0.153073
rtibia 38.0207
rfoot -9.41807 4.95885
rtoes -21.3017
lfemur -26.4382 -7.43261 0.346116
ltibia 34.9654
lfoot 1.76341 7.00068
ltoes -21.1056
2278
root -0.76141 18.5953 3.89284 -708.898 -99.5881 715.942
lowerback 16.0476 5.2991 -3.03096
upperback 4.61622 6.12886 -1.27297
thorax -4.20895 2.90696 -0.822067
lowerneck -1.95004 7.69428 -1.60848
upperneck 3.04459 10.1996 3.07964
head 1.01497 5.11314 1.34391
rclavicle -4.41302e-014 1.39149e-014
rhumerus 0.894266 20.6819 -85.9987
rradius 114.738
rwrist -54.6807
rhand 3.81723 7.6195
rfingers 7.12502
rthumb 29.2412 -20.1025
lclavicle -4.41302e-014 1.39149e-014
lhumerus -3.56104 5.44858 64.2616
lradius 146.837
lwrist 53.5152
lhand 7.74984 20.5346
lfingers 7.12502
lthumb 32.9891 47.5371
rfemur -17.6953 13.6252 -0.107498
rtibia 38.7964
rfoot -11.5904 -0.725797
rtoes -19.4871
lfemur -27.0482 -6.4908 -0.278716
ltibia 36.6113
lfoot 2.14527 3.89959
ltoes -21.9306
2279
root -0.66475 18.6133 3.81826 -708.881 -99.6702 715.765
lowerback 16.1915 5.02737 -3.03425
upperback 4.70505 5.76267 -1.21261
thorax -4.19345 2.72292 -0.691003
lowerneck -1.3939 7.82003 -1.43686
upperneck 3.08101 10.3523 3.07041
head 0.937516 5.18542 1.28803
rclavicle 2.33572e-014 -3.97569e-014
rhumerus 2.30966 20.3781 -85.677
rradius 116.104
rwrist -54.7281
rhand 3.39644 8.11277
rfingers 7.12502
rthumb 28.8393 -19.6785
lclavicle 2.33572e-014 -3.97569e-014
lhumerus -2.66763 5.90568 62.9929
lradius 147.009
lwrist 54.2022
lhand 7.90511 20.9124
lfingers 7.12502
lthumb 33.1368 47.8837
rfemur -17.6828 14.4877 -0.219433
rtibia 39.9397
rfoot -13.5938 -5.59796
rtoes -19.5196
lfemur -27.7611 -5.19608 -1.01397
ltibia 38.7849
lfoot 2.15854 1.62347
ltoes -22.2768
